<svg width="25" height="25" viewBox="0 0 25 25" fill="none" xmlns="http://www.w3.org/2000/svg">
<circle cx="12.5" cy="12.5" r="12" stroke="#B3B3B3"/>
<g clip-path="url(#clip0)">
<path d="M13.0217 13.1594C11.0967 13.1594 9.52173 11.5844 9.52173 9.65939C9.52173 7.73439 11.0967 6.15939 13.0217 6.15939C14.9467 6.15939 16.5217 7.73439 16.5217 9.65939C16.5217 11.5844 14.9467 13.1594 13.0217 13.1594ZM13.0217 7.34064C11.7311 7.34064 10.6811 8.39064 10.6811 9.68127C10.6811 10.9719 11.753 12 13.0217 12C14.2905 12 15.3624 10.95 15.3624 9.65939C15.3624 8.36877 14.3124 7.34064 13.0217 7.34064Z" fill="black"/>
<path d="M6.61254 17.8407C6.43754 17.8407 6.26254 17.775 6.15317 17.6C5.91254 17.3594 5.97817 16.9657 6.21879 16.7907C8.14379 15.2157 10.5282 14.3407 13.0438 14.3407C15.5594 14.3407 17.9438 15.2157 19.8032 16.7907C20.0438 17.0313 20.0875 17.3813 19.8688 17.6C19.6282 17.8407 19.2782 17.8844 19.0594 17.6657C17.3969 16.2657 15.2532 15.5 13.0219 15.5C10.7907 15.5 8.64692 16.2657 6.96254 17.7094C6.89692 17.775 6.72192 17.8407 6.61254 17.8407Z" fill="black"/>
</g>
<defs>
<clipPath id="clip0">
<rect x="6" y="5" width="14" height="14" fill="white"/>
</clipPath>
</defs>
</svg>
