<svg width="64" height="64" viewBox="0 0 64 64" fill="none" xmlns="http://www.w3.org/2000/svg">
<g clip-path="url(#clip0)">
<path d="M21.3 37.3C28.8 37.3 34.6 31.4 34.6 24C34.6 16.6 28.7 10.7 21.3 10.7C13.9 10.7 8 16.5 8 24C8 31.5 13.9 37.3 21.3 37.3ZM21.3 16C25.8 16 29.3 19.5 29.3 24C29.3 28.5 25.8 32 21.3 32C16.8 32 13.3 28.5 13.3 24C13.3 19.5 16.8 16 21.3 16Z" fill="#EA565C"/>
<path d="M21.3 40C13.6 40 6.39998 43.2 0.799976 48.8C-0.300024 49.9 -0.300024 51.5 0.799976 52.5C1.89998 53.5 3.49998 53.6 4.49998 52.5C8.99998 48 15.2 45.3 21.3 45.3C27.4 45.3 33.3 48 38.1 52.5C38.6 53 39.4 53.3 40 53.3C40.8 53.3 41.3 53 41.9 52.5C43 51.4 43 49.8 41.9 48.8C36.2 43.2 28.8 40 21.3 40Z" fill="#EA565C"/>
<path d="M48 37.3C52.5 37.3 56 33.8 56 29.3C56 24.8 52.5 21.3 48 21.3C43.5 21.3 40 24.8 40 29.3C40 33.8 43.4 37.3 48 37.3ZM48 26.7C49.6 26.7 50.7 27.8 50.7 29.4C50.7 31 49.6 32.1 48 32.1C46.4 32.1 45.3 31 45.3 29.4C45.3 27.7 46.4 26.7 48 26.7Z" fill="#EA565C"/>
<path d="M63.1999 46.1C57.5999 40.8 49.8999 38.9 42.0999 40.8C40.7999 41.1 39.6999 42.7 40.1999 44C40.4999 45.3 42.0999 46.4 43.3999 45.9C49.2999 44.3 55.3999 45.9 59.6999 49.9C60.1999 50.4 60.7999 50.7 61.5999 50.7C62.3999 50.7 62.8999 50.4 63.4999 49.9C64.1999 48.8 64.1999 46.9 63.1999 46.1Z" fill="#EA565C"/>
</g>
<defs>
<clipPath id="clip0">
<rect width="64" height="64" fill="white"/>
</clipPath>
</defs>
</svg>
